<svg width="24" height="24" viewBox="0 0 24 24" fill="none" xmlns="http://www.w3.org/2000/svg">
    <path fill-rule="evenodd" clip-rule="evenodd" d="M20 1L4 1C2.34315 1 1 2.34315 1 4L0.999999 20C0.999999 21.6569 2.34315 23 4 23L20 23C21.6569 23 23 21.6569 23 20L23 4C23 2.34315 21.6569 1 20 1ZM4 -8.74228e-07C1.79086 -9.70792e-07 -7.82811e-08 1.79086 -1.74846e-07 4L-8.74228e-07 20C9.36556e-07 22.2091 1.79086 24 4 24L20 24C22.2091 24 24 22.2091 24 20L24 4C24 1.79086 22.2091 -7.8281e-08 20 -1.74846e-07L4 -8.74228e-07ZM12 17.8571C15.2348 17.8571 17.8571 15.2348 17.8571 12C17.8571 8.76519 15.2348 6.14286 12 6.14286C8.76519 6.14286 6.14286 8.76519 6.14286 12C6.14286 15.2348 8.76519 17.8571 12 17.8571ZM12 18.8571C15.7871 18.8571 18.8571 15.7871 18.8571 12C18.8571 8.2129 15.7871 5.14286 12 5.14286C8.21291 5.14286 5.14286 8.21291 5.14286 12C5.14286 15.7871 8.21291 18.8571 12 18.8571ZM19.7143 6.85714C20.1877 6.85714 20.5714 6.47339 20.5714 6C20.5714 5.52661 20.1877 5.14286 19.7143 5.14286C19.2409 5.14286 18.8571 5.52661 18.8571 6C18.8571 6.47339 19.2409 6.85714 19.7143 6.85714Z" fill="#E7542C"/>
</svg>
