<svg width="76" height="81" viewBox="0 0 76 81" fill="none" xmlns="http://www.w3.org/2000/svg">
    <path d="M8.504 17.92C9.08 18.08 9.624 18.192 10.136 18.256C10.68 18.288 11.144 18.304 11.528 18.304C12.136 18.304 12.712 18.24 13.256 18.112C13.832 17.952 14.328 17.696 14.744 17.344C15.16 16.992 15.496 16.528 15.752 15.952C16.008 15.344 16.136 14.576 16.136 13.648C16.136 12.688 15.992 11.904 15.704 11.296C15.448 10.656 15.096 10.16 14.648 9.808C14.2 9.456 13.672 9.216 13.064 9.088C12.488 8.96 11.88 8.896 11.24 8.896C10.312 8.896 9.4 8.992 8.504 9.184V17.92ZM0.296 40C0.392 36.96 0.456 33.936 0.488 30.928C0.52 27.888 0.536 25.008 0.536 22.288C0.536 18.416 0.504 14.736 0.44 11.248C0.408 7.76 0.36 4.256 0.296 0.735999C1.864 0.575999 3.432 0.447999 5 0.351998C6.6 0.223998 8.168 0.159998 9.704 0.159998C11.912 0.159998 13.976 0.335998 15.896 0.687997C17.816 1.04 19.48 1.696 20.888 2.656C22.328 3.584 23.464 4.896 24.296 6.592C25.128 8.256 25.544 10.4 25.544 13.024C25.544 15.456 25.192 17.536 24.488 19.264C23.784 20.96 22.792 22.352 21.512 23.44C20.264 24.496 18.76 25.264 17 25.744C15.24 26.224 13.288 26.464 11.144 26.464C10.6 26.464 10.12 26.448 9.704 26.416C9.32 26.384 8.888 26.336 8.408 26.272C8.408 28.576 8.424 30.864 8.456 33.136C8.488 35.408 8.584 37.696 8.744 40H0.296ZM22.8905 40L29.9945 0.735999H41.8505L48.9065 40H40.7945L39.5945 32.128H32.2025L31.0505 40H22.8905ZM33.4985 23.536H38.2985L35.8985 7.696L33.4985 23.536ZM68.6911 0.735999H75.5551C75.4591 7.264 75.4111 13.808 75.4111 20.368C75.4111 26.928 75.4591 33.472 75.5551 40H66.2911L56.1151 16.528V40H49.5391C49.6031 36.704 49.6511 33.44 49.6831 30.208C49.7151 26.944 49.7311 23.664 49.7311 20.368C49.7311 17.072 49.7151 13.808 49.6831 10.576C49.6511 7.312 49.6031 4.032 49.5391 0.735999H59.2351L68.6911 24.16V0.735999ZM0.152 40.88C1.976 40.624 3.72 40.448 5.384 40.352C7.048 40.224 8.472 40.16 9.656 40.16C12.472 40.16 15.064 40.544 17.432 41.312C19.8 42.08 21.88 43.456 23.672 45.44C25.304 47.296 26.52 49.552 27.32 52.208C28.12 54.832 28.52 57.664 28.52 60.704C28.52 63.68 28.136 66.384 27.368 68.816C26.6 71.248 25.416 73.328 23.816 75.056C22.248 76.784 20.264 78.128 17.864 79.088C15.464 80.048 12.632 80.528 9.368 80.528C8.632 80.528 7.432 80.496 5.768 80.432C4.136 80.368 2.328 80.224 0.344 80C0.376 78.528 0.392 77.104 0.392 75.728C0.424 74.32 0.44 72.944 0.44 71.6C0.472 70.224 0.488 68.848 0.488 67.472C0.488 66.096 0.488 64.672 0.488 63.2C0.488 59.008 0.456 54.992 0.392 51.152C0.36 47.312 0.28 43.888 0.152 40.88ZM9.464 48.128C9.144 48.128 8.84 48.144 8.552 48.176C8.296 48.208 8.04 48.24 7.784 48.272C7.752 49.776 7.736 51.28 7.736 52.784C7.736 54.256 7.736 55.744 7.736 57.248C7.736 57.984 7.736 58.768 7.736 59.6C7.768 60.432 7.784 61.296 7.784 62.192C7.816 63.056 7.848 63.936 7.88 64.832C7.912 65.696 7.928 66.512 7.928 67.28C8.216 67.344 8.504 67.392 8.792 67.424C9.08 67.424 9.336 67.424 9.56 67.424C10.744 67.424 11.832 67.168 12.824 66.656C13.848 66.144 14.728 65.456 15.464 64.592C16.232 63.696 16.824 62.656 17.24 61.472C17.656 60.288 17.864 59.024 17.864 57.68C17.864 56.688 17.72 55.632 17.432 54.512C17.176 53.36 16.712 52.32 16.04 51.392C15.4 50.464 14.536 49.696 13.448 49.088C12.392 48.448 11.064 48.128 9.464 48.128ZM27.3905 80L34.4945 40.736H46.3505L53.4065 80H45.2945L44.0945 72.128H36.7025L35.5505 80H27.3905ZM37.9985 63.536H42.7985L40.3985 47.696L37.9985 63.536Z" fill="#E7542C"/>
</svg>
