<svg width="117" height="74" viewBox="0 0 117 74" fill="none" xmlns="http://www.w3.org/2000/svg">
<path fill-rule="evenodd" clip-rule="evenodd" d="M115.246 22.7531C112.266 27.9156 107.4 25.0432 101.065 21.3033L101.065 21.3032C100.357 20.8851 99.6304 20.4563 98.8861 20.0266C98.141 19.5964 97.4065 19.1818 96.6913 18.7781C90.3012 15.171 85.4582 12.4372 88.4383 7.27543C91.7521 1.53592 102.111 -2.48884 109.513 1.7852C116.916 6.05925 118.56 17.0136 115.246 22.7531ZM77.5134 63.0629C77.5134 68.7085 69.6784 73.2852 60.0134 73.2852C50.3484 73.2852 42.5134 68.7085 42.5134 63.0629C42.5134 57.4173 50.3484 50.2852 60.0134 50.2852C69.6784 50.2852 77.5134 57.4173 77.5134 63.0629ZM51.3575 27.6439C55.686 32.6625 52.2448 42.7254 43.6714 50.1199C35.0979 57.5145 24.6387 59.4406 20.3102 54.422C15.9817 49.4033 17.4636 37.0688 26.0371 29.6742C34.6105 22.2796 47.029 22.6253 51.3575 27.6439ZM20.9927 18.898C26.6099 14.1473 30.924 10.4987 27.0307 5.98464C22.7022 0.966026 10.9865 -1.29776 4.51344 4.2852C-1.95962 9.86816 -0.738801 21.1837 3.58972 26.2023C7.48257 30.7158 11.6585 27.0428 17.1682 22.1966C17.7849 21.6542 18.4182 21.0971 19.0698 20.5352C19.7206 19.9739 20.3647 19.4291 20.9926 18.8981L20.9927 18.898ZM76.0091 49.8727C84.0148 57.8784 94.3037 60.5694 98.99 55.8831C103.676 51.1968 103.107 38.7866 95.1009 30.7809C87.0951 22.7751 74.6849 22.2054 69.9986 26.8917C65.3124 31.578 68.0033 41.8669 76.0091 49.8727Z" fill="#E7542C"/>
</svg>
