<svg width="18" height="19" viewBox="0 0 18 19" fill="none" xmlns="http://www.w3.org/2000/svg">
<path d="M15.6356 3.55522C13.1183 2.73934 11.1688 3.95686 10.3715 8.16068C8.23031 19.4507 -3.04027 12.5861 0.786267 15.8732C3.92074 18.566 10.1913 19.3152 14.078 14.8169C19.8205 8.17014 18.275 4.41047 15.6356 3.55522ZM14.8304 4.26819C13.7752 4.80266 12.1585 6.14304 11.0017 10.7758C10.4087 13.1505 7.7829 14.3995 8.10196 14.1412C10.0917 12.5299 10.3191 11.1727 10.5491 10.1741C11.6294 5.48676 12.8013 4.50603 13.6296 4.04716C14.3238 3.66232 15.1059 4.12854 14.8304 4.26819Z" fill="#EB1C24"/>
<path d="M16.4823 3.13664C16.6337 1.94169 17.6233 0.857005 17.6233 0.857005C17.6794 0.759351 18.1085 0.379237 17.7847 0.167655C17.6354 0.0820767 17.3624 -0.0134765 17.3064 0.084177C17.3064 0.084177 16.0621 1.44293 15.6681 2.81532C14.9619 2.64889 14.3699 2.75285 14.229 3.17024C14.7031 3.14189 15.26 3.23219 15.8332 3.459C16.3665 3.67058 16.8343 3.96774 17.1979 4.3006C17.2383 3.91996 17.0203 3.46372 16.4823 3.13664Z" fill="#EB1C24"/>
</svg>
