<svg width="22" height="22" viewBox="0 0 22 22" fill="none" xmlns="http://www.w3.org/2000/svg">
<path d="M21.6026 16.3626C21.4549 16.0278 21.2027 15.6756 20.777 15.5364C19.8692 15.2397 16.2352 14.1934 16.2352 14.1934C16.2352 14.1934 15.257 13.8954 14.6142 14.5165L13.2594 15.8251C13.2576 15.8267 13.2564 15.8282 13.2542 15.8297C13.2137 15.862 12.7342 16.2278 12.2014 15.9495C11.8519 15.7671 10.2195 14.51 8.63039 12.9142C7.21514 11.4083 6.13681 9.94914 5.9725 9.62051C5.70376 9.08303 6.07784 8.60975 6.11071 8.56982C6.11224 8.56798 6.11347 8.56644 6.11531 8.56491L7.44702 7.23289C8.07909 6.60082 7.79807 5.6177 7.79807 5.6177C7.79807 5.6177 6.81526 1.96624 6.53424 1.05345C6.40248 0.625621 6.05481 0.367327 5.72249 0.213762C5.40707 0.0678762 5.06094 0 4.71327 0H4.07628C3.48905 0 3.09316 0.21069 3.09316 0.21069C2.9829 0.275494 0.903333 1.44013 0.424826 2.73867C-0.0665799 4.07284 0.00344448 5.26665 0.00344448 5.26665C0.00344448 7.93498 1.19725 10.3226 1.19725 10.3226C2.48843 12.8279 4.18808 14.8764 5.82139 16.4664C7.31127 17.9747 9.17493 19.5064 11.4164 20.7115C11.4164 20.7115 13.7828 21.9465 16.4508 21.9929C16.4508 21.9929 17.6431 22.0838 18.9859 21.6154C20.2927 21.1597 21.4933 19.1003 21.5599 18.9913C21.5599 18.9913 21.7774 18.5991 21.7875 18.0119L21.7985 17.3749C21.8047 17.0278 21.743 16.6805 21.6026 16.3626Z" fill="black"/>
</svg>
