<svg width="44" height="82" viewBox="0 0 44 82" fill="none" xmlns="http://www.w3.org/2000/svg">
<path fill-rule="evenodd" clip-rule="evenodd" d="M41.5301 0.00921277L41.3778 -9.83764e-08L41.2464 0.0773329L41.4999 0.5083C41.2464 0.0773329 41.2463 0.0773733 41.2462 0.0774517L41.2456 0.0777985L41.2432 0.0791729L41.234 0.0846209L41.1974 0.106124L41.0549 0.190034L40.5134 0.509299C40.0464 0.784812 39.3782 1.17949 38.5732 1.65622C36.9634 2.60963 34.8062 3.8914 32.6176 5.20456C30.4294 6.51747 28.208 7.86281 26.4703 8.94303C25.6017 9.48293 24.8514 9.95825 24.2854 10.3309C24.0027 10.5171 23.763 10.6797 23.5762 10.8131C23.3994 10.9394 23.242 11.059 23.1463 11.1547C23.0477 11.2533 23.001 11.3758 22.9825 11.4254C22.9559 11.4966 22.9328 11.5777 22.9121 11.6615C22.8704 11.8304 22.8283 12.0525 22.7854 12.3175C22.6991 12.8497 22.6038 13.5928 22.501 14.5112C22.3773 15.6164 22.2417 16.9849 22.0972 18.5626C21.4079 18.5267 20.7082 18.5083 19.9999 18.5083C8.95418 18.5083 -0.00012689 22.9855 -0.000127131 28.5083C-0.000127139 28.6941 0.0100123 28.8788 0.030028 29.0621L0.00312297 29.0652L5.32086 75.4745C5.11049 75.8081 4.99987 76.1539 4.99987 76.5083C4.99987 79.2697 11.7156 81.5083 19.9999 81.5083C28.2841 81.5083 34.9999 79.2697 34.9999 76.5083C34.9999 76.1539 34.8892 75.8081 34.6789 75.4745L39.9966 29.0652L39.9697 29.0621C39.9897 28.8788 39.9999 28.6941 39.9999 28.5083C39.9999 23.804 33.5031 19.8584 24.751 18.7922C24.8442 17.7561 24.933 16.8373 25.0166 16.0556C25.112 15.1626 25.1998 14.4552 25.2784 13.9588C25.3179 13.7094 25.3535 13.5228 25.3846 13.3961C25.3932 13.3611 25.4006 13.3338 25.4068 13.3132C25.5155 13.2202 25.7238 13.0685 26.0469 12.8559C26.4205 12.6101 26.9127 12.3052 27.5029 11.9512C28.6827 11.2436 30.238 10.3493 31.9859 9.3557C33.0224 8.76652 34.1264 8.1426 35.2584 7.5028L35.2588 7.50255C37.9399 5.98731 40.7785 4.383 43.2518 2.94022L43.4359 2.83281L43.4859 2.6256C43.5806 2.23336 43.6365 1.87731 43.6275 1.56227C43.6183 1.24101 43.5404 0.932816 43.3398 0.674065C43.1404 0.416996 42.8634 0.264878 42.5635 0.171048C42.2678 0.0785289 41.9183 0.0327069 41.5301 0.00921277ZM23.7567 18.6844C23.8497 17.6511 23.9385 16.7327 24.0222 15.9493C24.1182 15.0513 24.2081 14.3241 24.2907 13.8025C24.3318 13.5429 24.3725 13.3246 24.4134 13.158C24.4336 13.0754 24.4564 12.995 24.4829 12.9241C24.5017 12.874 24.5483 12.7528 24.6463 12.6548C24.813 12.4881 25.1209 12.2682 25.4973 12.0205C25.8878 11.7636 26.3935 11.4506 26.9885 11.0937C28.1792 10.3795 29.7433 9.4802 31.4917 8.48634C32.5331 7.8944 33.6401 7.26877 34.7739 6.62795C37.3845 5.1525 40.1376 3.59656 42.5598 2.1861C42.6118 1.93296 42.6321 1.73942 42.6279 1.59089C42.6227 1.41083 42.5826 1.32955 42.5495 1.28682C42.5151 1.2424 42.4426 1.18101 42.2649 1.12542C42.1096 1.07682 41.9002 1.04091 41.6197 1.01799L41.5625 1.05166L41.0215 1.37058C40.5549 1.64585 39.8872 2.04024 39.0828 2.51664C37.4739 3.46948 35.3185 4.75021 33.1321 6.06205C30.9453 7.37415 28.7292 8.7163 26.9982 9.79232C26.1324 10.3305 25.3906 10.8005 24.8354 11.1661C24.5576 11.3491 24.3296 11.5039 24.1574 11.6268C24.037 11.7129 23.9556 11.7751 23.9059 11.8159C23.8995 11.8373 23.8918 11.8653 23.883 11.9011C23.8509 12.0311 23.8138 12.2223 23.7725 12.4774C23.6902 12.9851 23.5971 13.7089 23.4948 14.6225C23.3727 15.7133 23.2386 17.0656 23.0955 18.6274C23.3171 18.6446 23.5375 18.6636 23.7567 18.6844ZM23.0055 19.6234C23.2279 19.6406 23.4491 19.6596 23.6688 19.6806C23.5747 20.7663 23.477 21.9574 23.3764 23.2347C23.0568 27.2943 22.7081 32.2315 22.3602 37.4376C22.1089 37.4528 21.8561 37.4656 21.6017 37.4759C22.0128 31.8191 22.4241 26.4329 22.795 22.0504C22.8668 21.2017 22.9371 20.3909 23.0055 19.6234ZM22.0072 19.5593C21.3481 19.5256 20.6784 19.5083 19.9999 19.5083C14.5986 19.5083 9.75812 20.6051 6.30495 22.3317C2.79197 24.0882 0.999873 26.3297 0.999873 28.5083C0.999873 30.6869 2.79197 32.9284 6.30495 34.6849C9.75812 36.4115 14.5986 37.5083 19.9999 37.5083C20.1997 37.5083 20.3988 37.5068 20.597 37.5038C21.0107 31.808 21.4251 26.3797 21.7985 21.9661C21.8696 21.1256 21.9393 20.3216 22.0072 19.5593ZM20.5245 38.5049C20.3502 38.5072 20.1753 38.5083 19.9999 38.5083C11.5191 38.5083 4.27113 35.869 1.36239 32.1435L6.21922 74.5304C8.30264 72.9197 12.8533 71.7468 18.2842 71.5406C18.3825 70.0157 18.5032 68.1524 18.6416 66.0381C19.0322 60.0689 19.5635 52.0993 20.1261 44.0982C20.2577 42.2272 20.3909 40.3544 20.5245 38.5049ZM20.2572 71.509C20.1716 71.5085 20.0858 71.5083 19.9999 71.5083C19.7613 71.5083 19.5239 71.5102 19.2881 71.5138C19.3852 70.0063 19.5038 68.1754 19.6394 66.1034C20.03 60.1351 20.5612 52.1672 21.1236 44.1683C21.2575 42.2648 21.3931 40.3597 21.529 38.4795C21.7851 38.4698 22.0399 38.4577 22.2932 38.4433C22.1531 40.5552 22.0133 42.7046 21.8759 44.8514C21.3758 52.665 20.907 60.4471 20.5632 66.2757C20.4453 68.2761 20.342 70.0464 20.2572 71.509ZM21.258 71.5256C26.8901 71.6815 31.6389 72.8746 33.7805 74.5304L38.6374 32.1435C36.1142 35.3752 30.3259 37.7895 23.3001 38.3728C23.157 40.5276 23.0142 42.7225 22.8739 44.9152C22.3739 52.7266 21.9052 60.5069 21.5615 66.3346C21.4446 68.3159 21.3422 70.0714 21.258 71.5256ZM23.3674 37.3635C27.4005 37.0124 30.9773 36.0437 33.6948 34.6849C37.2078 32.9284 38.9999 30.6869 38.9999 28.5083C38.9999 26.3297 37.2078 24.0881 33.6948 22.3317C31.272 21.1203 28.1663 20.2189 24.6631 19.7888C24.57 20.8648 24.4731 22.0457 24.3733 23.3132C24.057 27.3311 23.712 32.2117 23.3674 37.3635ZM23.925 11.7618C23.925 11.762 23.9237 11.7654 23.9208 11.7712C23.9235 11.7644 23.9249 11.7615 23.925 11.7618ZM25.4248 13.262C25.4249 13.2622 25.4236 13.2655 25.4208 13.2712C25.4234 13.2646 25.4248 13.2618 25.4248 13.262Z" fill="#E7542C"/>
</svg>
