<svg width="94" height="58" viewBox="0 0 94 58" fill="none" xmlns="http://www.w3.org/2000/svg">
    <path fill-rule="evenodd" clip-rule="evenodd" d="M92.2676 42.9785L92.1212 42.7922L91.8842 42.7876L72.048 42.4035L24.9279 8.00318L15.7771 1.32256L14.6595 0.506652C12.509 0.428442 12.4948 1.03668 13.1296 2.4839L13.1848 2.5266L14.5477 3.5811L23.2362 10.3038L64.5347 42.258L2.30656 41.0531L2.15349 41.0501L2.02501 41.1333C1.56093 41.434 1.19958 41.7136 0.954062 41.9879C0.708647 42.2621 0.5278 42.5896 0.555494 42.9689C0.582624 43.3405 0.801092 43.627 1.03163 43.8431C1.26521 44.062 1.57748 44.2698 1.91905 44.4774L2.0279 44.5436L2.15513 44.5496L71.7513 47.8418L74.0952 49.6553L79.3942 53.7554L83.9621 57.2897C84.0335 57.2724 84.1038 57.2551 84.1728 57.2377C86.1933 56.7308 87.1802 56.2112 87.0218 53.3353L82.1308 49.7645L80.0337 48.2335L91.6147 48.7814L91.8551 48.7927L92.0139 48.6119C92.7317 47.795 93.3629 47.0238 93.4927 46.1059C93.6276 45.1515 93.2126 44.1805 92.2676 42.9785ZM78.5675 47.1631L91.4202 47.771C92.071 47.0166 92.427 46.5002 92.5026 45.9659C92.5746 45.4565 92.3991 44.8126 91.6248 43.7828L73.4553 43.4309L76.8863 45.9357L78.5675 47.1631ZM65.8606 43.2839L2.44227 42.0559C2.0764 42.3009 1.84049 42.497 1.69919 42.6548C1.62254 42.7405 1.58491 42.8027 1.56723 42.8427C1.55147 42.8784 1.55264 42.8936 1.55283 42.896L1.55284 42.8961C1.55313 42.9 1.55934 42.9671 1.71544 43.1134C1.85151 43.2409 2.05338 43.3841 2.33094 43.5568L70.3732 46.7755L65.8606 43.2839Z" fill="#E7542C"/>
</svg>
