<svg width="73" height="82" viewBox="0 0 73 82" fill="none" xmlns="http://www.w3.org/2000/svg">
<path fill-rule="evenodd" clip-rule="evenodd" d="M72.5132 9.49975L48.0132 56.9998L39.8272 74.4394L36.5132 81.4998L33.1991 74.4394L25.0132 56.9998L0.513183 9.49975C0.513183 9.49975 6.01318 -3.3664e-05 36.5132 -1.57354e-06C67.0132 2.73712e-05 72.5132 9.49975 72.5132 9.49975ZM42.5818 54.4503L36.5132 67.379L33.2671 60.4634C33.5125 60.4876 33.7614 60.5 34.0132 60.5C38.1553 60.5 41.5132 57.1421 41.5132 53C41.5132 48.8579 38.1553 45.5 34.0132 45.5C31.3307 45.5 28.9771 46.9083 27.6515 49.0259L18.5369 31.3547C19.0142 31.45 19.5078 31.5 20.0132 31.5C24.1553 31.5 27.5132 28.1421 27.5132 24C27.5132 19.8579 24.1553 16.5 20.0132 16.5C16.9615 16.5 14.3355 18.3226 13.1644 20.9387L10.4103 15.5992C11.0622 15.0453 12.0149 14.3649 13.367 13.6611C15.012 12.8049 17.263 11.907 20.2977 11.1653C26.5932 11.6475 29.7749 12.9729 31.4328 14.6406C33.1828 16.401 33.3293 18.617 33.4924 21.084C33.5077 21.3149 33.5231 21.548 33.54 21.7831C33.734 24.4855 34.1446 27.3527 37.243 29.4942C37.4119 29.6109 37.5886 29.7254 37.7734 29.8374C36.9774 31.0283 36.5132 32.46 36.5132 34C36.5132 38.1421 39.871 41.5 44.0132 41.5C48.1553 41.5 51.5132 38.1421 51.5132 34C51.5132 33.6163 51.4844 33.2393 51.4288 32.871C52.1437 32.9089 52.8875 32.9389 53.6613 32.9605L42.6807 54.2493L42.6294 54.3489L42.5818 54.4503ZM54.1705 31.9732L62.6161 15.5992C61.9642 15.0453 61.0115 14.3649 59.6594 13.6611C55.8742 11.691 48.8809 9.50001 36.5132 9.5C31.25 9.49999 26.9602 9.89678 23.4766 10.5045C27.928 11.1511 30.5675 12.3518 32.142 13.9356C34.1702 15.9758 34.3358 18.5763 34.4895 20.9893L34.4895 20.9896C34.505 21.2324 34.5203 21.4733 34.5374 21.7115C34.7278 24.3623 35.1141 26.8072 37.8116 28.6716C37.9926 28.7967 38.1845 28.9195 38.3877 29.0397C39.762 27.4823 41.7729 26.5 44.0132 26.5C47.4106 26.5 50.2805 28.759 51.2025 31.8569C52.1372 31.9099 53.1255 31.9489 54.1705 31.9732ZM55.5132 19.5C55.5132 20.6046 54.6178 21.5 53.5132 21.5C52.4086 21.5 51.5132 20.6046 51.5132 19.5C51.5132 18.3954 52.4086 17.5 53.5132 17.5C54.6178 17.5 55.5132 18.3954 55.5132 19.5ZM28.5132 37.5C29.6178 37.5 30.5132 36.6046 30.5132 35.5C30.5132 34.3954 29.6178 33.5 28.5132 33.5C27.4086 33.5 26.5132 34.3954 26.5132 35.5C26.5132 36.6046 27.4086 37.5 28.5132 37.5Z" fill="#E7542C"/>
</svg>
