<svg width="70" height="55" viewBox="0 0 70 55" fill="none" xmlns="http://www.w3.org/2000/svg">
<path d="M45.0001 50.9999C45.0001 52.1045 40.2991 52.9999 34.5001 52.9999C28.7011 52.9999 24.0001 52.1045 24.0001 50.9999C23 47.5 28.7011 50.4999 34.5001 50.4999C40.2991 50.4999 45.5001 48 45.0001 50.9999Z" fill="#E7542C"/>
<path d="M69.5 15C69.5 16.902 68.6027 18.7558 66.8937 20.4875C65.1825 22.2213 62.6816 23.8057 59.5518 25.147C53.2939 27.829 44.6139 29.5 35 29.5C25.3861 29.5 16.7061 27.829 10.4482 25.147C7.3184 23.8057 4.81751 22.2213 3.10635 20.4875C1.3973 18.7558 0.5 16.902 0.5 15C0.5 13.098 1.3973 11.2442 3.10635 9.51254C4.81751 7.77869 7.3184 6.19432 10.4482 4.85297C16.7061 2.17103 25.3861 0.5 35 0.5C44.6139 0.5 53.2939 2.17103 59.5518 4.85297C62.6816 6.19432 65.1825 7.77869 66.8937 9.51254C68.6027 11.2442 69.5 13.098 69.5 15Z" stroke="#E7542C"/>
<path d="M0.5 15C0.5 63 69.5 61.5 69.5 15" stroke="#E7542C"/>
<path d="M23.5361 48.3489C20.4459 54.8066 49.4362 55.71 45.034 48.6481" stroke="#E7542C" stroke-linejoin="round"/>
<path d="M24.2065 49C21.3678 54.134 48.8081 54.529 44.5501 49" stroke="#E7542C" stroke-linejoin="round"/>
<path d="M24.2065 49C21.3678 54.134 48.8081 54.529 44.5501 49" stroke="#E7542C" stroke-linejoin="round"/>
<mask id="mask0" mask-type="alpha" maskUnits="userSpaceOnUse" x="1" y="1" width="68" height="28">
<ellipse cx="35" cy="15" rx="34" ry="14" fill="#C4C4C4"/>
</mask>
<g mask="url(#mask0)">
<path d="M67.1645 21.7596C65.2089 16.8909 59.6767 14.5295 54.8081 16.4851C49.9395 18.4407 47.578 23.9728 49.5336 28.8414" stroke="#E7542C"/>
<path d="M65.7951 22.9589C64.1638 18.8977 59.5492 16.9279 55.4881 18.5592C51.427 20.1904 49.4572 24.805 51.0884 28.8662" stroke="#E7542C"/>
<path d="M64.1567 24.3692C62.9616 21.394 59.581 19.9509 56.6058 21.146C53.6306 22.341 52.1875 25.7217 53.3826 28.6968" stroke="#E7542C"/>
<path d="M62.9219 25.34C62.181 23.4954 59.8834 22.6816 57.7902 23.5224C55.6969 24.3632 54.6007 26.5402 55.3416 28.3849" stroke="#E7542C"/>
<path d="M48.6636 28.4728C48.2671 23.2411 43.7045 19.3214 38.4728 19.718C33.2411 20.1145 29.3215 24.6771 29.718 29.9088" stroke="#E7542C"/>
<path d="M46.9966 29.2034C46.6658 24.8394 42.8599 21.5698 38.4959 21.9006C34.132 22.2314 30.8624 26.0372 31.1931 30.4012" stroke="#E7542C"/>
<path d="M45.009 30.054C44.7666 26.857 41.9785 24.4617 38.7814 24.704C35.5844 24.9463 33.1891 27.7345 33.4314 30.9315" stroke="#E7542C"/>
<path d="M43.5387 30.6074C43.3885 28.6251 41.4433 27.1564 39.1939 27.3269C36.9446 27.4974 35.2429 29.2425 35.3931 31.2248" stroke="#E7542C"/>
<path d="M29.574 29.7276C30.4407 24.5529 26.9484 19.6555 21.7738 18.7888C16.5992 17.9221 11.7017 21.4143 10.835 26.5889" stroke="#E7542C"/>
<path d="M27.7805 30.038C28.5034 25.7216 25.5904 21.6365 21.274 20.9135C16.9576 20.1905 12.8724 23.1036 12.1495 27.42" stroke="#E7542C"/>
<path d="M25.647 30.3884C26.1767 27.2262 24.0426 24.2334 20.8804 23.7038C17.7182 23.1742 14.7254 25.3083 14.1958 28.4704" stroke="#E7542C"/>
<path d="M24.0872 30.5739C24.4155 28.6133 22.8782 26.7219 20.6534 26.3492C18.4286 25.9766 16.3588 27.2639 16.0304 29.2245" stroke="#E7542C"/>
<path d="M10.7512 24.9024C11.6179 19.7278 8.12565 14.8303 2.95103 13.9636C-2.2236 13.0969 -7.12106 16.5892 -7.98777 21.7638" stroke="#E7542C"/>
<path d="M8.95772 25.2129C9.68068 20.8965 6.76763 16.8113 2.45125 16.0884C-1.86514 15.3654 -5.95033 18.2784 -6.67329 22.5948" stroke="#E7542C"/>
<path d="M6.82427 25.5633C7.3539 22.4011 5.21981 19.4083 2.05765 18.8787C-1.10452 18.349 -4.09732 20.4831 -4.62696 23.6453" stroke="#E7542C"/>
<path d="M5.26441 25.7488C5.59279 23.7882 4.05543 21.8967 1.83062 21.5241C-0.394189 21.1514 -2.46396 22.4387 -2.79235 24.3993" stroke="#E7542C"/>
<path d="M82.8187 10.4221C80.0713 5.9522 74.2205 4.55583 69.7507 7.30321C65.2808 10.0506 63.8844 15.9013 66.6318 20.3712" stroke="#E7542C"/>
<path d="M81.6707 11.8348C79.379 8.10622 74.4987 6.94145 70.7701 9.23316C67.0416 11.5249 65.8768 16.4052 68.1685 20.1338" stroke="#E7542C"/>
<path d="M80.2929 13.5008C78.614 10.7693 75.0387 9.91602 72.3072 11.5949C69.5757 13.2738 68.7223 16.8492 70.4012 19.5807" stroke="#E7542C"/>
<path d="M6.5 15.5C10 8.50001 21.5 11.5 22 19" stroke="#E7542C"/>
<path d="M23.7671 18.8858C25.8423 11.3397 37.7059 12.0513 39.6516 19.3118" stroke="#E7542C"/>
<path d="M25.5083 19.7764C27.1276 14.7282 35.791 15.0409 37.1151 19.8446" stroke="#E7542C"/>
<path d="M25.5083 19.7764C27.1276 14.7282 35.791 15.0409 37.1151 19.8446" stroke="#E7542C"/>
<path d="M26.5034 20.5464C27.8416 16.9389 34.602 17.0344 35.5658 20.4253" stroke="#E7542C"/>
<path d="M44.1505 20.8571C44.1075 16.3423 51.5326 13.6691 54 17" stroke="#E7542C"/>
<path d="M60.9128 16.176C58.6489 12.2696 63.79 6.28241 67.5792 7.96326" stroke="#E7542C"/>
<path d="M8.2024 16.2183C10.9672 12.4752 18.9614 14.7653 19 19" stroke="#E7542C"/>
<path d="M41.4395 19.7219C41.561 11.8966 53.2253 9.61766 56.9255 16.1605" stroke="#E7542C"/>
<path d="M57.6816 15.4185C55.5052 7.90095 65.9902 2.30489 71.4448 7.47668" stroke="#E7542C"/>
<path d="M-5.12193 4.33599C1.58777 0.307326 9.68196 9.00985 6.07925 15.6069" stroke="#E7542C"/>
<path d="M16.5897 12.2211C19.0064 4.77736 30.8252 6.02847 32.4383 13.37" stroke="#E7542C"/>
<path d="M34.2846 13.7753C35.3202 6.01783 47.1709 5.11838 50.0808 12.049" stroke="#E7542C"/>
<path d="M50.7271 12.5542C48.4324 5.0719 58.8278 -0.688832 64.3633 4.39627" stroke="#E7542C"/>
<path d="M6.2448 -0.966732C13.4196 -4.09284 20.319 5.58434 15.8926 11.6594" stroke="#E7542C"/>
<path d="M25.8561 7.21604C27.7572 -0.375788 39.634 0.0627613 41.7462 7.27656" stroke="#E7542C"/>
<path d="M42.3353 7.34584C41.0245 -0.369855 52.0758 -4.74225 56.9095 1.01411" stroke="#E7542C"/>
<path d="M10.945 -0.193377C16.2047 -5.98868 26.4679 0.00436649 24.9247 7.36092" stroke="#E7542C"/>
<path d="M8.94498 -0.193377C14.2047 -5.98868 24.4679 0.00436649 22.9247 7.36092" stroke="#E7542C"/>
<path d="M5.94498 0.806623C11.2047 -4.98868 21.4679 1.00437 19.9247 8.36092" stroke="#E7542C"/>
<path d="M3.16099 -0.890249C10.2363 -4.23537 17.4299 5.22522 13.1922 11.4335" stroke="#E7542C"/>
<path d="M-0.839014 0.109751C6.23632 -3.23537 13.4299 6.22522 9.19221 12.4335" stroke="#E7542C"/>
<path d="M-8.61131 4.629C-2.62155 -0.408152 6.74471 6.9078 4.22837 13.9908" stroke="#E7542C"/>
<path d="M28.5 7.99992C31 3.99996 35.5 3.99998 38.5 7.99992M31 9.99996C31 6.99996 35.5 7.49996 35.5 9.99996M9.5 18.5C11 15.5 15.5 17.5 15.5 19.5M19 13.5C21.5 9.49996 27.5 9.99996 28.5 14M21 15.5C22.8184 13.0232 25 14 25.5 16M28 22.5C28.5 20 32.5 21 32.5 22.5M36.5 15C38.5 10.5 44 9.99996 46.5 12.5M38.5 16.5C40.6083 13.7493 41.6289 14.4508 43.5 15M39 2.99996C39.6664 1.16014 40.4157 0.908732 42 0.999957M24.5 3.5C27.0918 0.837352 28.1858 1.02438 30 2M46 7.99992C45.4737 5.09439 45.37 3.53691 48.5 2M48.5 9.5C47.9606 5.99005 48.4326 4.37119 51.5 2.5M58.5 5C54.0493 7.05962 53.3395 8.83729 53.5 12.5" stroke="#E7542C"/>
</g>
</svg>
