<svg width="58" height="73" viewBox="0 0 58 73" fill="none" xmlns="http://www.w3.org/2000/svg">
<path fill-rule="evenodd" clip-rule="evenodd" d="M40.0132 21.5C47.9053 21.5 51.5132 16.7873 51.5132 14C51.5132 11.2127 47.9053 6.5 40.0132 6.5C32.1211 6.5 28.5132 11.2127 28.5132 14C28.5132 16.7873 32.1211 21.5 40.0132 21.5ZM40.0132 27.5C42.9612 27.5 45.739 26.9377 48.176 25.9445C49.403 28.4374 49.9162 30.5699 49.8707 32.9391C49.8244 35.3462 49.2013 38.025 48.1062 41.6123C43.5383 43.3643 39.7851 43.8039 35.5132 42.7349L35.5132 42.5L35.5014 42.5C35.5092 42.3341 35.5132 42.1674 35.5132 42C35.5132 36.2109 30.7896 31.2728 24.1534 29.3544L23.7192 18.9348C26.2735 23.9498 32.6059 27.5 40.0132 27.5ZM23.1414 29.0889L22.549 14.8713C22.5253 14.5832 22.5132 14.2927 22.5132 14C22.5132 6.54415 30.3482 0.499999 40.0132 0.499999C49.6782 0.5 57.5132 6.54415 57.5132 14C57.5132 14.1674 57.5092 14.3341 57.5014 14.5L57.5132 14.5L57.5132 38L57.5132 38.2882L57.2638 38.4326C54.3313 40.1315 51.1859 41.4836 48.6951 42.4566C43.9472 44.3114 39.9865 44.8308 35.5132 43.7642L35.5132 66L35.5132 66.2882L35.2638 66.4326C32.3313 68.1315 29.1859 69.4836 26.6951 70.4566C22.5007 72.0951 18.9076 72.6979 15.0168 72.0662C11.1438 71.4374 7.0222 69.5925 1.75568 66.4286L1.52482 66.2899L1.51361 66.0208L0.549048 42.8713C0.525259 42.5832 0.513182 42.2927 0.513182 42C0.513182 34.5442 8.3482 28.5 18.0132 28.5C19.7976 28.5 21.5196 28.706 23.1414 29.0889ZM50.8705 32.9583C50.9194 30.4169 50.3641 28.1377 49.093 25.543C52.5092 23.9404 55.1577 21.4607 56.5132 18.5092L56.5132 37.7107C54.0775 39.0996 51.5001 40.2508 49.2918 41.1435C50.2534 37.9044 50.8249 35.329 50.8705 32.9583ZM41.5985 18.6449C44.5699 18.1016 46.5132 16.0687 46.5132 14C46.5132 11.5827 43.8598 9.21429 40.0132 9.21429C39.3921 9.21429 38.802 9.27604 38.2493 9.38978C35.8466 11.2925 35.8625 13.1049 40.0132 14.3857C41.2397 14.7642 43.1347 16.8446 41.5985 18.6449ZM40.0132 8.21429C44.1553 8.21429 47.5132 10.8046 47.5132 14C47.5132 17.1954 44.1553 19.7857 40.0132 19.7857C35.871 19.7857 32.5132 17.1954 32.5132 14C32.5132 10.8046 35.871 8.21429 40.0132 8.21429ZM18.0132 49.5C25.9053 49.5 29.5132 44.7873 29.5132 42C29.5132 39.2127 25.9053 34.5 18.0132 34.5C10.1211 34.5 6.51318 39.2127 6.51318 42C6.51318 44.7873 10.1211 49.5 18.0132 49.5ZM18.0132 55.5C20.9612 55.5 23.739 54.9377 26.176 53.9445C27.4029 56.4374 27.9162 58.5699 27.8707 60.9391C27.8244 63.3462 27.2013 66.0249 26.1062 69.6122C22.1251 71.1392 18.7754 71.6633 15.177 71.0791C11.5475 70.4899 7.61995 68.7662 2.50151 65.7097L1.71922 46.9348C4.27347 51.9498 10.6059 55.5 18.0132 55.5ZM28.8705 60.9583C28.9194 58.4169 28.3641 56.1377 27.093 53.543C30.5092 51.9404 33.1577 49.4607 34.5132 46.5092L34.5132 65.7107C32.0775 67.0995 29.5001 68.2508 27.2918 69.1435C28.2534 65.9044 28.8249 63.329 28.8705 60.9583ZM19.5985 46.6449C22.5699 46.1016 24.5132 44.0687 24.5132 42C24.5132 39.5827 21.8598 37.2143 18.0132 37.2143C17.3921 37.2143 16.802 37.276 16.2493 37.3898C13.8466 39.2925 13.8625 41.1049 18.0132 42.3857C19.2397 42.7642 21.1347 44.8445 19.5985 46.6449ZM18.0132 36.2143C22.1553 36.2143 25.5132 38.8046 25.5132 42C25.5132 45.1954 22.1553 47.7857 18.0132 47.7857C13.871 47.7857 10.5132 45.1954 10.5132 42C10.5132 38.8046 13.871 36.2143 18.0132 36.2143Z" fill="#E7542C"/>
</svg>
