<svg width="101" height="61" viewBox="0 0 101 61" fill="none" xmlns="http://www.w3.org/2000/svg">
<path fill-rule="evenodd" clip-rule="evenodd" d="M100.825 53.7639L100.838 54.0005C100.922 55.5271 100.704 56.5605 100.046 57.2646C99.4132 57.9419 98.4536 58.2111 97.397 58.4683L97.1631 58.5252L96.9728 58.3779L48.373 20.7743C48.4655 21.5032 48.5132 22.246 48.5132 23C48.5132 31.0034 43.1406 37.752 35.8052 39.8358L88.9365 54.3261L89.1651 54.3885L89.2616 54.6049C89.8842 56.0014 90.0493 57.0443 89.6853 57.9368C89.3351 58.7952 88.5345 59.3887 87.6389 60.0055L87.4407 60.142L87.2103 60.0722L1.4976 34.1059L1.3757 34.069L1.28632 33.9782C1.00584 33.6934 0.753836 33.4155 0.58084 33.1462C0.410094 32.8803 0.268271 32.5491 0.33277 32.1822C0.398619 31.8076 0.654021 31.5342 0.959006 31.3283C1.26411 31.1223 1.68283 30.9396 2.20632 30.7614L2.35126 30.7121L2.49896 30.7524L18.3457 35.0742C15.3515 31.9338 13.5132 27.6816 13.5132 23C13.5132 14.0814 20.1849 6.72099 28.8096 5.63741L26.1403 3.57205L26.0396 3.49411L25.9884 3.37746C25.8278 3.01141 25.6914 2.66199 25.6257 2.34866C25.5609 2.03943 25.5465 1.6794 25.7375 1.35958C25.9325 1.03302 26.2686 0.868608 26.6269 0.784902C26.9854 0.701163 27.4417 0.679593 27.9943 0.69969L28.1473 0.705255L28.271 0.795528L35.5159 6.08472C39.7882 7.21903 43.4188 9.92895 45.7478 13.5546L100.633 53.6241L100.825 53.7639ZM19.9284 36.5423L2.38547 31.7579C1.97082 31.9061 1.69414 32.0386 1.51855 32.1571C1.42329 32.2214 1.3716 32.2726 1.34466 32.3071C1.32066 32.3379 1.3181 32.3528 1.31769 32.3552L1.31766 32.3554C1.31698 32.3592 1.30662 32.4258 1.42224 32.6058C1.52302 32.7627 1.68378 32.9509 1.9107 33.1862L87.2687 59.045C88.0841 58.4725 88.5555 58.0587 88.7593 57.5591C88.9536 57.0828 88.9408 56.4155 88.4417 55.2277L33.6925 40.2962C32.819 40.4304 31.9243 40.5 31.0132 40.5C26.8065 40.5 22.9465 39.0157 19.9284 36.5423ZM97.3934 57.4389L48.1252 19.3182C47.8491 18.0288 47.431 16.792 46.8879 15.6251L99.8497 54.2902C99.8928 55.5779 99.667 56.2059 99.3157 56.5818C98.9472 56.9759 98.3592 57.1945 97.3934 57.4389ZM27.8066 1.69464L33.2053 5.63597C32.4872 5.54623 31.7556 5.50001 31.0132 5.50001C30.7694 5.50001 30.5268 5.50499 30.2854 5.51487L26.8541 2.85991C26.7259 2.55919 26.6427 2.32609 26.6045 2.14357C26.5606 1.93417 26.594 1.87568 26.596 1.87232L26.5961 1.8722C26.5973 1.87011 26.605 1.85705 26.6384 1.83685C26.6759 1.8142 26.7424 1.78483 26.8544 1.75869C27.0607 1.71049 27.3664 1.68532 27.8066 1.69464ZM31.0132 34.5C37.3645 34.5 42.5132 29.3513 42.5132 23C42.5132 16.6487 37.3645 11.5 31.0132 11.5C24.6619 11.5 19.5132 16.6487 19.5132 23C19.5132 29.3513 24.6619 34.5 31.0132 34.5ZM32.3459 29.3633C35.2965 28.7484 37.5132 26.1331 37.5132 23C37.5132 19.4102 34.603 16.5 31.0132 16.5C30.5402 16.5 30.0789 16.5505 29.6346 16.6465C26.8557 19.2494 26.6513 21.7552 31.0132 23.5C32.3001 24.0148 34.3231 26.9585 32.3459 29.3633ZM31.0132 15.5C35.1553 15.5 38.5132 18.8579 38.5132 23C38.5132 27.1421 35.1553 30.5 31.0132 30.5C26.8711 30.5 23.5132 27.1421 23.5132 23C23.5132 18.8579 26.8711 15.5 31.0132 15.5Z" fill="#E7542C"/>
</svg>
