<svg width="137" height="41" viewBox="0 0 137 41" fill="none" xmlns="http://www.w3.org/2000/svg">
<path d="M8.504 17.92C9.08 18.08 9.624 18.192 10.136 18.256C10.68 18.288 11.144 18.304 11.528 18.304C12.136 18.304 12.712 18.24 13.256 18.112C13.832 17.952 14.328 17.696 14.744 17.344C15.16 16.992 15.496 16.528 15.752 15.952C16.008 15.344 16.136 14.576 16.136 13.648C16.136 12.688 15.992 11.904 15.704 11.296C15.448 10.656 15.096 10.16 14.648 9.808C14.2 9.456 13.672 9.216 13.064 9.088C12.488 8.96 11.88 8.896 11.24 8.896C10.312 8.896 9.4 8.992 8.504 9.184V17.92ZM0.296 40C0.392 36.96 0.456 33.936 0.488 30.928C0.52 27.888 0.536 25.008 0.536 22.288C0.536 18.416 0.504 14.736 0.44 11.248C0.408 7.76 0.36 4.256 0.296 0.735999C1.864 0.575999 3.432 0.447999 5 0.351998C6.6 0.223998 8.168 0.159998 9.704 0.159998C11.912 0.159998 13.976 0.335998 15.896 0.687997C17.816 1.04 19.48 1.696 20.888 2.656C22.328 3.584 23.464 4.896 24.296 6.592C25.128 8.256 25.544 10.4 25.544 13.024C25.544 15.456 25.192 17.536 24.488 19.264C23.784 20.96 22.792 22.352 21.512 23.44C20.264 24.496 18.76 25.264 17 25.744C15.24 26.224 13.288 26.464 11.144 26.464C10.6 26.464 10.12 26.448 9.704 26.416C9.32 26.384 8.888 26.336 8.408 26.272C8.408 28.576 8.424 30.864 8.456 33.136C8.488 35.408 8.584 37.696 8.744 40H0.296ZM22.8905 40L29.9945 0.735999H41.8505L48.9065 40H40.7945L39.5945 32.128H32.2025L31.0505 40H22.8905ZM33.4985 23.536H38.2985L35.8985 7.696L33.4985 23.536ZM68.6911 0.735999H75.5551C75.4591 7.264 75.4111 13.808 75.4111 20.368C75.4111 26.928 75.4591 33.472 75.5551 40H66.2911L56.1151 16.528V40H49.5391C49.6031 36.704 49.6511 33.44 49.6831 30.208C49.7151 26.944 49.7311 23.664 49.7311 20.368C49.7311 17.072 49.7151 13.808 49.6831 10.576C49.6511 7.312 49.6031 4.032 49.5391 0.735999H59.2351L68.6911 24.16V0.735999ZM83.0289 0.879997C84.8529 0.623999 86.5969 0.447999 88.2609 0.351998C89.9249 0.223998 91.3489 0.159998 92.5329 0.159998C95.3489 0.159998 97.9409 0.543998 100.309 1.312C102.677 2.08 104.757 3.456 106.549 5.44C108.181 7.296 109.397 9.552 110.197 12.208C110.997 14.832 111.397 17.664 111.397 20.704C111.397 23.68 111.013 26.384 110.245 28.816C109.477 31.248 108.293 33.328 106.693 35.056C105.125 36.784 103.141 38.128 100.741 39.088C98.3409 40.048 95.5089 40.528 92.2449 40.528C91.5089 40.528 90.3089 40.496 88.6449 40.432C87.0129 40.368 85.2049 40.224 83.2209 40C83.2529 38.528 83.2689 37.104 83.2689 35.728C83.3009 34.32 83.3169 32.944 83.3169 31.6C83.3489 30.224 83.3649 28.848 83.3649 27.472C83.3649 26.096 83.3649 24.672 83.3649 23.2C83.3649 19.008 83.3329 14.992 83.2689 11.152C83.2369 7.312 83.1569 3.888 83.0289 0.879997ZM92.3409 8.128C92.0209 8.128 91.7169 8.144 91.4289 8.176C91.1729 8.208 90.9169 8.24 90.6609 8.272C90.6289 9.776 90.6129 11.28 90.6129 12.784C90.6129 14.256 90.6129 15.744 90.6129 17.248C90.6129 17.984 90.6129 18.768 90.6129 19.6C90.6449 20.432 90.6609 21.296 90.6609 22.192C90.6929 23.056 90.7249 23.936 90.7569 24.832C90.7889 25.696 90.8049 26.512 90.8049 27.28C91.0929 27.344 91.3809 27.392 91.6689 27.424C91.9569 27.424 92.2129 27.424 92.4369 27.424C93.6209 27.424 94.7089 27.168 95.7009 26.656C96.7249 26.144 97.6049 25.456 98.3409 24.592C99.1089 23.696 99.7009 22.656 100.117 21.472C100.533 20.288 100.741 19.024 100.741 17.68C100.741 16.688 100.597 15.632 100.309 14.512C100.053 13.36 99.5889 12.32 98.9169 11.392C98.2769 10.464 97.4129 9.696 96.3249 9.088C95.2689 8.448 93.9409 8.128 92.3409 8.128ZM110.267 40L117.371 0.735999H129.227L136.283 40H128.171L126.971 32.128H119.579L118.427 40H110.267ZM120.875 23.536H125.675L123.275 7.696L120.875 23.536Z" fill="black"/>
</svg>
