<svg width="66" height="69" viewBox="0 0 66 69" fill="none" xmlns="http://www.w3.org/2000/svg">
<path d="M8.0784 15.232C8.568 15.368 9.0304 15.4632 9.4656 15.5176C9.928 15.5448 10.3224 15.5584 10.6488 15.5584C11.1656 15.5584 11.6552 15.504 12.1176 15.3952C12.6072 15.2592 13.0288 15.0416 13.3824 14.7424C13.736 14.4432 14.0216 14.0488 14.2392 13.5592C14.4568 13.0424 14.5656 12.3896 14.5656 11.6008C14.5656 10.7848 14.4432 10.1184 14.1984 9.6016C13.9808 9.0576 13.6816 8.636 13.3008 8.3368C12.92 8.0376 12.4712 7.8336 11.9544 7.7248C11.4648 7.616 10.948 7.5616 10.404 7.5616C9.6152 7.5616 8.84 7.6432 8.0784 7.8064V15.232ZM1.1016 34C1.1832 31.416 1.2376 28.8456 1.2648 26.2888C1.292 23.7048 1.3056 21.2568 1.3056 18.9448C1.3056 15.6536 1.2784 12.5256 1.224 9.5608C1.1968 6.596 1.156 3.6176 1.1016 0.625597C2.4344 0.489597 3.7672 0.380797 5.1 0.299196C6.46 0.190396 7.7928 0.135996 9.0984 0.135996C10.9752 0.135996 12.7296 0.285595 14.3616 0.584795C15.9936 0.883996 17.408 1.4416 18.6048 2.2576C19.8288 3.0464 20.7944 4.1616 21.5016 5.6032C22.2088 7.0176 22.5624 8.84 22.5624 11.0704C22.5624 13.1376 22.2632 14.9056 21.6648 16.3744C21.0664 17.816 20.2232 18.9992 19.1352 19.924C18.0744 20.8216 16.796 21.4744 15.3 21.8824C13.804 22.2904 12.1448 22.4944 10.3224 22.4944C9.86 22.4944 9.452 22.4808 9.0984 22.4536C8.772 22.4264 8.4048 22.3856 7.9968 22.3312C7.9968 24.2896 8.0104 26.2344 8.0376 28.1656C8.0648 30.0968 8.1464 32.0416 8.2824 34H1.1016ZM20.3069 34L26.3453 0.625597H36.4229L42.4205 34H35.5253L34.5053 27.3088H28.2221L27.2429 34H20.3069ZM29.3237 20.0056H33.4037L31.3637 6.5416L29.3237 20.0056ZM59.2375 0.625597H65.0719C64.9903 6.1744 64.9495 11.7368 64.9495 17.3128C64.9495 22.8888 64.9903 28.4512 65.0719 34H57.1975L48.5479 14.0488V34H42.9583C43.0127 31.1984 43.0535 28.424 43.0807 25.6768C43.1079 22.9024 43.1215 20.1144 43.1215 17.3128C43.1215 14.5112 43.1079 11.7368 43.0807 8.9896C43.0535 6.2152 43.0127 3.4272 42.9583 0.625597H51.1999L59.2375 20.536V0.625597ZM0.9792 34.748C2.5296 34.5304 4.012 34.3808 5.4264 34.2992C6.8408 34.1904 8.0512 34.136 9.0576 34.136C11.4512 34.136 13.6544 34.4624 15.6672 35.1152C17.68 35.768 19.448 36.9376 20.9712 38.624C22.3584 40.2016 23.392 42.1192 24.072 44.3768C24.752 46.6072 25.092 49.0144 25.092 51.5984C25.092 54.128 24.7656 56.4264 24.1128 58.4936C23.46 60.5608 22.4536 62.3288 21.0936 63.7976C19.7608 65.2664 18.0744 66.4088 16.0344 67.2248C13.9944 68.0408 11.5872 68.4488 8.8128 68.4488C8.1872 68.4488 7.1672 68.4216 5.7528 68.3672C4.3656 68.3128 2.8288 68.1904 1.1424 68C1.1696 66.7488 1.1832 65.5384 1.1832 64.3688C1.2104 63.172 1.224 62.0024 1.224 60.86C1.2512 59.6904 1.2648 58.5208 1.2648 57.3512C1.2648 56.1816 1.2648 54.9712 1.2648 53.72C1.2648 50.1568 1.2376 46.7432 1.1832 43.4792C1.156 40.2152 1.088 37.3048 0.9792 34.748ZM8.8944 40.9088C8.6224 40.9088 8.364 40.9224 8.1192 40.9496C7.9016 40.9768 7.684 41.004 7.4664 41.0312C7.4392 42.3096 7.4256 43.588 7.4256 44.8664C7.4256 46.1176 7.4256 47.3824 7.4256 48.6608C7.4256 49.2864 7.4256 49.9528 7.4256 50.66C7.4528 51.3672 7.4664 52.1016 7.4664 52.8632C7.4936 53.5976 7.5208 54.3456 7.548 55.1072C7.5752 55.8416 7.5888 56.5352 7.5888 57.188C7.8336 57.2424 8.0784 57.2832 8.3232 57.3104C8.568 57.3104 8.7856 57.3104 8.976 57.3104C9.9824 57.3104 10.9072 57.0928 11.7504 56.6576C12.6208 56.2224 13.3688 55.6376 13.9944 54.9032C14.6472 54.1416 15.1504 53.2576 15.504 52.2512C15.8576 51.2448 16.0344 50.1704 16.0344 49.028C16.0344 48.1848 15.912 47.2872 15.6672 46.3352C15.4496 45.356 15.0552 44.472 14.484 43.6832C13.94 42.8944 13.2056 42.2416 12.2808 41.7248C11.3832 41.1808 10.2544 40.9088 8.8944 40.9088ZM24.1319 68L30.1703 34.6256H40.2479L46.2455 68H39.3503L38.3303 61.3088H32.0471L31.0679 68H24.1319ZM33.1487 54.0056H37.2287L35.1887 40.5416L33.1487 54.0056Z" fill="black"/>
</svg>
