<svg width="40" height="31" viewBox="0 0 40 31" fill="none" xmlns="http://www.w3.org/2000/svg">
<path d="M7.21301 30.8295V28.779C7.24741 28.0955 6.76576 27.5145 6.07768 27.4803C6.00887 27.4803 5.97447 27.4803 5.90566 27.4803C5.45841 27.4461 5.01116 27.6854 4.73593 28.0613C4.4951 27.6854 4.08226 27.4461 3.63501 27.4803C3.25657 27.4461 2.87812 27.6512 2.6717 27.9588V27.5487H1.94922V30.8295H2.6717V29.0182C2.60289 28.6081 2.91253 28.198 3.32537 28.1638C3.35978 28.1638 3.42858 28.1638 3.46299 28.1638C3.94464 28.1638 4.18547 28.4714 4.18547 29.0182V30.8295H4.90795V29.0182C4.83914 28.6081 5.14878 28.198 5.56162 28.1638C5.59603 28.1638 5.66484 28.1638 5.69924 28.1638C6.18089 28.1638 6.42172 28.4714 6.42172 29.0182V30.8295H7.21301ZM17.9126 27.5487H16.7429V26.5576H16.0204V27.5487H15.3667V28.198H16.0204V29.7017C16.0204 30.4536 16.33 30.8979 17.1557 30.8979C17.4654 30.8979 17.775 30.7953 18.0502 30.6586L17.8438 30.0435C17.6374 30.146 17.431 30.2144 17.2245 30.2144C16.8805 30.2144 16.7429 30.0093 16.7429 29.6676V28.1638H17.9126V27.5487ZM24.0365 27.4803C23.6925 27.4803 23.3484 27.6512 23.1764 27.9588V27.5487H22.4539V30.8295H23.1764V28.984C23.1764 28.4372 23.4172 28.1297 23.8645 28.1297C24.0021 28.1297 24.1741 28.1638 24.3117 28.198L24.5181 27.5145C24.3461 27.4803 24.1741 27.4461 24.0365 27.4803ZM14.7819 27.8221C14.369 27.5828 13.9218 27.4803 13.4401 27.4803C12.6144 27.4803 12.064 27.8904 12.064 28.5398C12.064 29.0866 12.4768 29.3942 13.1993 29.4967L13.5433 29.5309C13.9218 29.5992 14.1282 29.7017 14.1282 29.8726C14.1282 30.1118 13.853 30.2827 13.3713 30.2827C12.9929 30.2827 12.58 30.1802 12.2704 29.941L11.9263 30.4878C12.3392 30.7612 12.8552 30.9321 13.3369 30.8979C14.3002 30.8979 14.8507 30.4536 14.8507 29.8384C14.8507 29.2233 14.4034 28.9499 13.7153 28.8473L13.3713 28.8132C13.0617 28.779 12.8208 28.7106 12.8208 28.5056C12.8208 28.3005 13.0617 28.1297 13.4401 28.1297C13.8186 28.1297 14.1626 28.2322 14.4722 28.4031L14.7819 27.8221ZM33.9448 27.4803C33.6008 27.4803 33.2567 27.6512 33.0847 27.9588V27.5487H32.3622V30.8295H33.0847V28.984C33.0847 28.4372 33.3255 28.1297 33.7728 28.1297C33.9104 28.1297 34.0824 28.1638 34.22 28.198L34.4265 27.5145C34.2888 27.4803 34.1168 27.4461 33.9448 27.4803ZM24.7246 29.1891C24.6902 30.1118 25.4127 30.8637 26.3072 30.8979C26.376 30.8979 26.4104 30.8979 26.4792 30.8979C26.892 30.9321 27.3393 30.7953 27.6489 30.5219L27.3049 29.941C27.064 30.1118 26.7544 30.2144 26.4448 30.2485C25.8599 30.2144 25.4471 29.7017 25.4815 29.1207C25.5159 28.6081 25.9287 28.198 26.4448 28.1638C26.7544 28.1638 27.064 28.2664 27.3049 28.4714L27.6489 27.8904C27.3049 27.617 26.892 27.4803 26.4792 27.5145C25.5503 27.4461 24.7934 28.1638 24.7246 29.0524C24.7246 29.0524 24.7246 29.1207 24.7246 29.1891ZM31.4333 29.1891V27.5487H30.7108V27.9588C30.47 27.6512 30.0916 27.4803 29.6787 27.4803C28.7154 27.4803 27.9585 28.2322 27.9585 29.1891C27.9585 30.146 28.7154 30.8979 29.6787 30.8979C30.0916 30.8979 30.47 30.727 30.7108 30.4194V30.8295H31.4333V29.1891ZM28.7842 29.1891C28.8186 28.6423 29.3003 28.2322 29.8507 28.2664C30.4012 28.3005 30.8141 28.779 30.7797 29.3258C30.7452 29.8384 30.3324 30.2485 29.7819 30.2485C29.2315 30.2485 28.7842 29.8384 28.7842 29.2916C28.7842 29.2233 28.7842 29.1891 28.7842 29.1891ZM20.1489 27.4803C19.1856 27.4803 18.4287 28.2664 18.4631 29.2233C18.4975 30.1802 19.2544 30.9321 20.2177 30.8979C20.6993 30.9321 21.2154 30.7612 21.5938 30.4536L21.2498 29.941C20.9746 30.146 20.6305 30.2827 20.2865 30.2827C19.8048 30.3169 19.3576 29.9751 19.2888 29.4967H21.7314C21.7314 29.3942 21.7314 29.3258 21.7314 29.2233C21.7314 28.1638 21.0778 27.4803 20.1489 27.4803ZM20.1489 28.0955C20.5961 28.0955 20.9746 28.4372 20.9746 28.8815H19.2544C19.2888 28.4372 19.6672 28.0955 20.1489 28.0955ZM38.0733 29.1891V26.25H37.3852V27.9588C37.1444 27.6512 36.7659 27.4803 36.3531 27.4803C35.3898 27.4803 34.6329 28.2322 34.6329 29.1891C34.6329 30.146 35.3898 30.8979 36.3531 30.8979C36.7659 30.8979 37.1444 30.727 37.3852 30.4194V30.8295H38.0733V29.1891ZM39.2774 30.3511C39.3118 30.3511 39.3806 30.3511 39.415 30.3852C39.4494 30.3852 39.4838 30.4194 39.5182 30.4536C39.5526 30.4878 39.587 30.5219 39.587 30.5561C39.6214 30.6245 39.6214 30.727 39.587 30.7953C39.5526 30.8295 39.5526 30.8637 39.5182 30.8979C39.4838 30.9321 39.4494 30.9662 39.415 30.9662C39.3806 31.0004 39.3462 31.0004 39.2774 31.0004C39.1398 31.0004 39.0366 30.932 38.9678 30.7953C38.9334 30.727 38.9334 30.6245 38.9678 30.5561C39.0022 30.5219 39.0022 30.4878 39.0366 30.4536C39.071 30.4194 39.1054 30.3852 39.1398 30.3852C39.1742 30.3511 39.243 30.3511 39.2774 30.3511ZM39.2774 30.9321C39.3118 30.9321 39.3462 30.9321 39.3806 30.8979C39.415 30.8979 39.4494 30.8637 39.4494 30.8295C39.5526 30.727 39.5526 30.5903 39.4494 30.4878C39.415 30.4536 39.415 30.4536 39.3806 30.4194C39.3462 30.4194 39.3118 30.3852 39.2774 30.3852C39.243 30.3852 39.2086 30.3852 39.1742 30.4194C39.1398 30.4194 39.1054 30.4536 39.1054 30.4878C39.0022 30.5903 39.0022 30.727 39.1054 30.8295C39.1398 30.8637 39.1742 30.8637 39.1742 30.8979C39.2086 30.8979 39.243 30.9321 39.2774 30.9321ZM39.2774 30.5219C39.3118 30.5219 39.3462 30.5219 39.3806 30.5561C39.415 30.5903 39.415 30.5903 39.415 30.6245C39.415 30.6586 39.415 30.6586 39.3806 30.6928C39.3462 30.727 39.3462 30.727 39.3118 30.727L39.415 30.8295H39.3462L39.243 30.727H39.2086V30.8295H39.1398V30.5219H39.2774ZM39.2086 30.5561V30.6245H39.2774H39.3118V30.5903V30.5561H39.2774H39.2086ZM35.4242 29.1891C35.4586 28.6423 35.9402 28.2322 36.4907 28.2664C37.0412 28.3005 37.454 28.779 37.4196 29.3258C37.3852 29.8384 36.9723 30.2485 36.4219 30.2485C35.8714 30.2485 35.4242 29.8384 35.4242 29.2916C35.4242 29.2233 35.4242 29.2233 35.4242 29.1891ZM11.2727 29.1891V27.5487H10.5502V27.9588C10.3094 27.6512 9.93091 27.4803 9.51807 27.4803C8.55476 27.4803 7.79787 28.2322 7.79787 29.1891C7.79787 30.146 8.55476 30.8979 9.51807 30.8979C9.93091 30.8979 10.3094 30.727 10.5502 30.4194V30.8295H11.2727V29.1891ZM8.58916 29.1891C8.62357 28.6423 9.10522 28.2322 9.65568 28.2664C10.2061 28.3005 10.619 28.779 10.5846 29.3258C10.5502 29.8384 10.1373 30.2485 9.58688 30.2485C9.03641 30.2485 8.58916 29.8384 8.58916 29.2916C8.58916 29.2233 8.58916 29.2233 8.58916 29.1891Z" fill="#231F20"/>
<path d="M25.4114 2.66797H14.5742V22.0113H25.4114V2.66797Z" fill="#FF5F00"/>
<path d="M15.2636 12.3412C15.2636 8.58189 17.0182 4.99346 20.0114 2.66952C14.6444 -1.53407 6.83468 -0.611335 2.63741 4.75423C-1.55986 10.1198 -0.665358 17.8435 4.73605 22.0129C9.24295 25.533 15.5389 25.533 20.0458 22.0129C16.9838 19.6548 15.2292 16.1005 15.2636 12.3412Z" fill="#EB001B"/>
<path d="M39.9996 12.3402C39.9996 19.1412 34.4606 24.6434 27.6142 24.6434C24.8275 24.6434 22.144 23.7207 19.9766 22.0119C25.3436 17.8083 26.2725 10.0505 22.0752 4.71907C21.4559 3.93303 20.7679 3.24952 19.9766 2.63436C25.3436 -1.56923 33.1532 -0.646491 37.3849 4.71907C39.0707 6.87213 39.9996 9.572 39.9996 12.3402Z" fill="#F79E1B"/>
<path d="M38.8307 19.9609V19.5508H39.0027V19.4824H38.5898V19.5508H38.7619V19.9609H38.8307ZM39.622 19.9609V19.4824H39.4843L39.3467 19.8242L39.2091 19.4824H39.1059V19.9609H39.2091V19.6191L39.3467 19.9267H39.4499L39.5876 19.6191V19.9951L39.622 19.9609Z" fill="#F79E1B"/>
</svg>
