<svg width="55" height="18" viewBox="0 0 55 18" fill="none" xmlns="http://www.w3.org/2000/svg">
<path d="M20.8796 0.335243L13.6736 17.7163H8.98843L5.44907 3.84241C5.24537 2.9914 5.04167 2.68195 4.37963 2.32092C3.31019 1.72779 1.55324 1.16046 0 0.825215L0.101852 0.309455H7.66435C8.63194 0.309455 9.49769 0.954155 9.70139 2.08883L11.5856 12.1461L16.2199 0.309455H20.8796V0.335243ZM39.2894 12.043C39.3148 7.45272 33.0255 7.19484 33.0509 5.15759C33.0764 4.53868 33.662 3.86819 34.9352 3.68768C35.5718 3.61031 37.3287 3.53295 39.3148 4.46132L40.1042 0.773639C39.0347 0.386819 37.6597 0 35.9537 0C31.5741 0 28.4676 2.37249 28.4421 5.75072C28.4167 8.25215 30.6574 9.6447 32.338 10.4957C34.0694 11.3467 34.6551 11.8883 34.6551 12.6619C34.6551 13.8223 33.2801 14.3381 32.0069 14.3639C29.7662 14.3897 28.4676 13.745 27.4491 13.255L26.6343 17.0716C27.6782 17.5616 29.588 17.9742 31.5741 18C36.2083 18 39.2639 15.6533 39.2894 12.043ZM50.9005 17.7163H55L51.4097 0.309455H47.6157C46.7755 0.309455 46.037 0.799427 45.7315 1.59885L39.0602 17.7163H43.7199L44.6366 15.1117H50.3403L50.9005 17.7163ZM45.9352 11.553L48.2778 5.02865L49.6273 11.553H45.9352V11.553ZM27.2454 0.335243L23.5787 17.7421H19.1227L22.7894 0.335243H27.2454V0.335243Z" fill="#10357F"/>
</svg>
